<svg xmlns="http://www.w3.org/2000/svg" xmlns:xlink="http://www.w3.org/1999/xlink" viewBox="0 0 1366 768"><defs><style>.cls-1{fill:url(#linear-gradient);}</style><linearGradient id="linear-gradient" x1="160.39" y1="658.32" x2="1100.23" y2="165" gradientUnits="userSpaceOnUse"><stop offset="0" stop-color="#3fffec"/><stop offset="1" stop-color="#2aa9ff"/></linearGradient></defs><title>bg</title><g id="Layer_2" data-name="Layer 2"><g id="Layer_1-2" data-name="Layer 1"><path class="cls-1" d="M1005,133C723,133,683,0,683,0H0V683.57A244.31,244.31,0,0,1,97.53,705.9c8.9,4.14,18,8.93,27.85,8.66,8.63-.23,16.59-4.35,24.42-8,65.89-30.57,145.25-30.52,211.11.12,7.88,3.66,15.93,7.83,24.62,7.9,9,.07,17.37-4.27,25.54-8.07,65.41-30.41,144.18-30.51,209.67-.28,7.3,3.37,14.67,7.16,22.69,7.7,10.48.7,20.4-4.21,30-8.43,32.77-14.36,68.39-20.93,104-20.42,71.48,1,143,30.57,191.72,82.9H1366V323S1287,133,1005,133Z"/></g></g></svg>